# AST/ASF file generated using VICON BodyLanguage
# -----------------------------------------------
:version 1.10
:name VICON
:units
  mass 1.0
  length 0.45
  angle deg
:documentation
   .ast/.asf automatically generated from VICON data using
   VICON BodyBuilder and BodyLanguage model FoxedUp or BRILLIANT.MOD
:root
   order TX TY TZ RX RY RZ
   axis XYZ
   position 0 0 0  
   orientation 0 0 0 
:bonedata
  begin
     id 1 
     name lhipjoint
     direction 0.521452 -0.77106 0.36545 
     length 2.0933 
     axis 0 0 0  XYZ
  end
  begin
     id 2 
     name lfemur
     direction 0.34202 -0.939693 0  
     length 6.83441  
     axis 0 0 20  XYZ
    dof rx ry rz
    limits (-160.0 20.0)
           (-70.0 70.0)
           (-60.0 70.0)
  end
  begin
     id 3 
     name ltibia
     direction 0.34202 -0.939693 0   
     length 7.28749   
     axis 0 0 20   XYZ
    dof rx
    limits (-10.0 170.0)
  end
  begin
     id 4 
     name lfoot
     direction 0.100608 -0.276418 0.955757   
     length 1.52195   
     axis -90 7.62852e-016 20   XYZ
    dof rx rz
    limits (-45.0 90.0)
           (-70.0 20.0)
  end
  begin
     id 5 
     name ltoes
     direction 1.53558e-011 -4.21907e-011 1   
     length 0.770459   
     axis -90 7.62852e-016 20   XYZ
    dof rx
    limits (-90.0 20.0)
  end
  begin
     id 6 
     name rhipjoint
     direction -0.488071 -0.788702 0.373812   
     length 2.04648  
     axis 0 0 0  XYZ 
  end
  begin
     id 7 
     name rfemur
     direction -0.34202 -0.939693 0   
     length 6.92583   
     axis 0 0 -20   XYZ
    dof rx ry rz
    limits (-160.0 20.0)
           (-70.0 70.0)
           (-70.0 60.0)
  end
  begin
     id 8 
     name rtibia
     direction -0.34202 -0.939693 0   
     length 7.41043   
     axis 0 0 -20   XYZ
    dof rx
    limits (-10.0 170.0)
 end
 begin
     id 9 
     name rfoot
     direction -0.0784433 -0.215521 0.973343   
     length 1.67708  
     axis -90 -7.62852e-016 -20   XYZ
    dof rx rz
    limits (-45.0 90.0)
           (-20.0 70.0)
  end
  begin
     id 10 
     name rtoes
     direction -1.53551e-011 -4.21842e-011 1   
     length 0.849787   
     axis -90 -7.62852e-016 -20   XYZ
    dof rx
    limits (-90.0 20.0)
  end
  begin
     id 11 
     name lowerback
     direction -0.0122332 0.997575 -0.0685192   
     length 1.98724   
     axis 0 0 0   XYZ
    dof rx ry rz
    limits (-20.0 45.0)
           (-30.0 30.0)
           (-30.0 30.0)
  end
  begin
     id 12 
     name upperback
     direction 0.0182347 0.999724 -0.0148421   
     length 1.99029   
     axis 0 0 0   XYZ
    dof rx ry rz
    limits (-20.0 45.0)
           (-30.0 30.0)
           (-30.0 30.0)
  end
  begin
     id 13 
     name thorax
     direction 0.0242908 0.99956 0.0170184   
     length 1.99573   
     axis 0 0 0   XYZ
    dof rx ry rz
    limits (-20.0 45.0)
           (-30.0 30.0)
           (-30.0 30.0)
  end
  begin
     id 14 
     name lowerneck
     direction 0.0654488 0.985533 0.156338   
     length 1.4285   
     axis 0 0 0   XYZ
    dof rx ry rz
    limits (-20.0 45.0)
           (-30.0 30.0)
           (-30.0 30.0)
  end
  begin
     id 15 
     name upperneck
     direction -0.02953 0.998556 -0.0448842   
     length 1.44709   
     axis 0 0 0   XYZ
    dof rx ry rz
    limits (-20.0 45.0)
           (-30.0 30.0)
           (-30.0 30.0)
  end
  begin
     id 16
     name head
     direction -0.0155588 0.999386 -0.0314063  
     length 1.44689  
     axis 0 0 0   XYZ
    dof rx ry rz
    limits (-20.0 45.0)
           (-30.0 30.0)
           (-30.0 30.0)
  end
  begin
     id 17 
     name lclavicle
     direction 0.968229 0.236071 -0.0824755  
     length 3.60593  
     axis 0 0 0   XYZ
    dof ry rz
    limits (-20.0 10.0)
           (0.0 20.0)
  end
  begin
     id 18 
     name lhumerus
     direction 1 -4.48968e-011 7.8138e-029   
     length 5.06035   
     axis 180 -30 -90   XYZ
    dof rx ry rz
    limits (-60.0 90.0)
           (-90.0 90.0)
           (-90.0 90.0)
  end
  begin
     id 19
     name lradius
     direction 1 -4.48967e-011 9.02887e-028   
     length 3.1478   
     axis 180 -30 -90   XYZ
    dof rx
    limits (-10.0 170.0)
  end
  begin
     id 20
     name lwrist
     direction 1 -4.48961e-011 7.20928e-028   
     length 1.5739   
     axis -5.52449e-016 90 90   XYZ
    dof ry
    limits (-180.0 0.0)
 end
  begin
     id 21 
     name lhand
     direction 1 -4.48972e-011 1.44186e-027   
     length 0.606747   
     axis -9.20027e-016 90 90   XYZ
    dof rx rz
    limits (-90.0 90.0)
           (-45.0 45.0)
  end
  begin
     id 22 
     name lfingers
     direction 1 -4.48943e-011 2.88371e-027   
     length 0.489175   
     axis -1.84005e-015 90 90   XYZ
    dof rx
    limits (0.0 90.0)
  end
  begin
     id 23
     name lthumb
     direction 0.707107 -6.34917e-011 0.707107   
     length 0.70236   
     axis -90 45 2.85299e-015   XYZ
    dof rx rz
    limits (-45.0 45.0)
           (-45.0 45.0)
  end
  begin
     id 24 
     name rclavicle
     direction -0.978165 0.207816 0.0022268   
     length 3.35425  
     axis 0 0 0   XYZ 
    dof ry rz
    limits (-10.0 20.0)
           (-20.0 0.0)
  end
  begin
     id 25 
     name rhumerus
     direction -1 -4.48964e-011 -4.02159e-027  
     length 5.12273   
     axis 180 30 90   XYZ
    dof rx ry rz
    limits (-90.0 60.0)
           (-90.0 90.0)
           (-90.0 90.0)
  end
  begin
     id 26 
     name rradius
     direction -1 -4.48966e-011 1.62746e-027   
     length 3.422   
     axis 180 30 90   XYZ
    dof rx
    limits (-10.0 170.0)
  end
  begin
     id 27 
     name rwrist
     direction -1 -4.4896e-011 7.20928e-028   
     length 1.711   
     axis -5.52449e-016 -90 -90   XYZ
    dof ry
    limits (-180.0 0.0)
  end
  begin
     id 28
     name rhand
     direction -1 -4.48979e-011 1.44186e-027   
     length 0.704599   
     axis -9.20027e-016 -90 -90   XYZ
    dof rx rz
    limits (-90.0 90.0)
           (-45.0 45.0)
  end
  begin
     id 29
     name rfingers
     direction -1 -4.48962e-011 2.88371e-027   
     length 0.568066   
     axis -1.84005e-015 -90 -90   XYZ
    dof rx
    limits (0.0 90.0)
  end
  begin
     id 30
     name rthumb
     direction -0.707107 -6.34949e-011 0.707107   
     length 0.815633   
     axis -90 -45 -2.85299e-015   XYZ
    dof rx rz
    limits (-45.0 45.0)
           (-45.0 45.0)
  end
:hierarchy
  begin
    root lhipjoint rhipjoint lowerback
    lhipjoint lfemur
    lfemur ltibia
    ltibia lfoot
    lfoot ltoes
    rhipjoint rfemur
    rfemur rtibia
    rtibia rfoot
    rfoot rtoes
    lowerback upperback
    upperback thorax
    thorax lowerneck lclavicle rclavicle
    lowerneck upperneck
    upperneck head
    lclavicle lhumerus
    lhumerus lradius
    lradius lwrist
    lwrist lhand lthumb
    lhand lfingers
    rclavicle rhumerus
    rhumerus rradius
    rradius rwrist
    rwrist rhand rthumb
    rhand rfingers
  end

#!OML:ASF E:\id_vita\Project 1\Capture day 1\Session 1\Male1.ASF
:FULLY-SPECIFIED
:DEGREES
314
root 11.6542 15.9865 2.02103 180.188 -73.4632 -175.882
lowerback 1.16123 -1.67954 -0.327424
upperback -0.0421482 -2.25181 -0.703675
thorax -0.709182 -1.12696 -0.496853
lowerneck -6.56026 -3.41203 -1.79402
upperneck -7.3284 -4.82054 -1.57208
head -1.17484 -2.47306 -0.227586
rclavicle 9.24349e-015 -4.77083e-015
rhumerus -30.2987 -5.26164 -85.4446
rradius 26.1586
rwrist 3.32182
rhand -22.3989 37.61
rfingers 7.12502
rthumb 4.02358 7.66821
lclavicle 9.24349e-015 -4.77083e-015
lhumerus -57.622 50.1088 38.4734
lradius 8.89219
lwrist -42.0889
lhand -12.5694 47.3688
lfingers 7.12502
lthumb 13.5083 76.9106
rfemur 0.689721 6.34163 20.3942
rtibia 45.9969
rfoot 2.26694 12.2166
rtoes 19.5178
lfemur -31.5898 4.54448 -21.8029
ltibia 36.5738
lfoot -10.0708 -1.90502
ltoes 44.8154
315
root 11.5107 15.9982 2.02502 183.985 -73.2746 -179.642
lowerback 1.05635 -1.69958 -1.39405
upperback -0.20251 -2.29962 -0.952959
thorax -0.783374 -1.14833 -0.155662
lowerneck -6.67243 -3.17212 -2.67447
upperneck -6.37379 -4.35469 -0.893129
head -0.82538 -2.2204 0.110061
rclavicle -5.30507e-014 8.34896e-015
rhumerus -30.4644 -5.54246 -85.1845
rradius 25.2615
rwrist 4.03281
rhand -21.9034 37.7117
rfingers 7.12502
rthumb 4.50203 7.77955
lclavicle -5.30507e-014 8.34896e-015
lhumerus -57.4277 50.0555 38.7332
lradius 9.33645
lwrist -41.926
lhand -12.2502 46.622
lfingers 7.12502
lthumb 13.8158 76.1432
rfemur -1.12357 6.32383 18.8905
rtibia 48.9856
rfoot 4.6343 12.9437
rtoes 19.6536
lfemur -31.0675 4.58821 -23.1546
ltibia 36.3884
lfoot -10.5643 -1.92594
ltoes 44.9322
316
root 11.3644 16.012 2.02461 186.745 -73.0117 -182.544
lowerback 1.07332 -1.69699 -2.22588
upperback -0.226965 -2.31545 -1.18042
thorax -0.794665 -1.15484 0.0771359
lowerneck -6.25969 -3.2162 -2.80609
upperneck -6.82399 -4.4381 -0.845132
head -1.02694 -2.25601 0.158823
rclavicle 3.37437e-014 2.78299e-015
rhumerus -30.3066 -6.34812 -84.8518
rradius 24.1108
rwrist 5.18493
rhand -21.5437 37.4316
rfingers 7.12502
rthumb 4.8494 7.50706
lclavicle 3.37437e-014 2.78299e-015
lhumerus -57.0747 50.0727 39.1121
lradius 9.85926
lwrist -41.8048
lhand -11.8657 46.076
lfingers 7.12502
lthumb 14.1864 75.5716
rfemur -2.72144 6.44249 17.7458
rtibia 51.8749
rfoot 6.91696 13.4973
rtoes 19.0162
lfemur -30.2854 4.72278 -24.1775
ltibia 36.0412
lfoot -10.847 -2.1424
ltoes 45.9288
317
root 11.2133 16.0334 2.02345 189.385 -72.7899 -185.445
lowerback 0.985886 -1.72462 -3.02866
upperback -0.0350118 -2.36349 -1.46413
thorax -0.528188 -1.18348 0.228167
lowerneck -6.7197 -3.26688 -2.38342
upperneck -6.74728 -4.54424 -1.32044
head -0.948555 -2.32378 -0.0640836
rclavicle -2.13694e-015 1.03368e-014
rhumerus -29.9005 -7.52592 -84.5522
rradius 23.0133
rwrist 6.61248
rhand -21.3215 36.7801
rfingers 7.12502
rthumb 5.06394 6.8606
lclavicle -2.13694e-015 1.03368e-014
lhumerus -56.3874 50.2561 39.6335
lradius 10.3158
lwrist -41.7247
lhand -11.5748 45.4761
lfingers 7.12502
lthumb 14.4668 74.9518
rfemur -4.21044 6.47313 16.6
rtibia 54.6198
rfoot 9.4466 13.9494
rtoes 19.2067
lfemur -29.2943 4.87238 -25.2228
ltibia 35.5714
lfoot -11.1051 -2.45356
ltoes 46.9464
318
root 11.0677 16.047 2.01978 191.61 -72.6076 -187.988
lowerback 1.46495 -1.85212 -3.98308
upperback -0.201978 -2.58263 -1.5372
thorax -0.924344 -1.28404 0.708297
lowerneck -6.19426 -3.1628 -2.79341
upperneck -7.06109 -4.39069 -0.942829
head -1.11448 -2.23311 0.132109
rclavicle 6.42323e-014 2.38542e-015
rhumerus -30.056 -8.52454 -83.9299
rradius 21.8528
rwrist 8.45473
rhand -20.9937 36.8297
rfingers 7.12502
rthumb 5.38046 6.91805
lclavicle 6.42323e-014 2.38542e-015
lhumerus -52.5762 47.5043 45.0222
lradius 10.8485
lwrist -37.1926
lhand -11.5324 45.322
lfingers 7.12502
lthumb 14.5076 74.7947
rfemur -5.66809 6.43199 15.5998
rtibia 57.1586
rfoot 12.2297 14.3125
rtoes 19.8363
lfemur -28.1758 5.22062 -26.2724
ltibia 35.1038
lfoot -11.3716 -2.65916
ltoes 45.8869
319
root 10.9254 16.0493 2.01441 193.074 -72.407 -189.794
lowerback 1.68375 -1.89718 -4.60534
upperback -0.0672271 -2.66943 -1.67224
thorax -0.883833 -1.32933 0.922576
lowerneck -6.10484 -3.17558 -2.66225
upperneck -7.49177 -4.4551 -1.11867
head -1.27072 -2.26848 0.0643568
rclavicle -1.84621e-014 5.96354e-015
rhumerus -29.9028 -9.51337 -83.5271
rradius 20.9553
rwrist 9.99958
rhand -20.5093 36.973
rfingers 7.12502
rthumb 5.84816 7.07374
lclavicle -1.84621e-014 5.96354e-015
lhumerus -48.7906 44.8843 50.0454
lradius 11.5216
lwrist -33.1346
lhand -11.1509 45.6193
lfingers 7.12502
lthumb 14.8751 75.0653
rfemur -7.0568 6.41218 14.8571
rtibia 59.4772
rfoot 14.8454 14.5975
rtoes 20.2107
lfemur -27.0178 5.66788 -27.1136
ltibia 34.6801
lfoot -11.7823 -2.71465
ltoes 43.9716
320
root 10.7857 16.0585 2.01027 194.482 -72.3239 -191.376
lowerback 1.7733 -1.90474 -5.06038
upperback 0.02835 -2.6981 -1.82298
thorax -0.821274 -1.34708 1.02251
lowerneck -6.08385 -3.24649 -2.5241
upperneck -7.69237 -4.58906 -1.40544
head -1.34702 -2.33798 -0.0433997
rclavicle -7.22831e-014 2.34566e-014
rhumerus -29.9899 -10.0137 -83.3299
rradius 20.6296
rwrist 10.5222
rhand -20.1207 36.5487
rfingers 7.12502
rthumb 6.22329 6.66011
lclavicle -7.22831e-014 2.34566e-014
lhumerus -45.264 42.091 54.57
lradius 12.1635
lwrist -29.518
lhand -10.6296 46.3595
lfingers 7.12502
lthumb 15.3772 75.7677
rfemur -8.53062 6.22334 14.1834
rtibia 61.58
rfoot 16.7877 14.7823
rtoes 21.1046
lfemur -26.1583 5.93508 -27.8174
ltibia 34.379
lfoot -12.3798 -2.8857
ltoes 43.4706
321
root 10.6448 16.0691 2.00818 195.537 -72.3842 -192.535
lowerback 1.92408 -2.0035 -5.33691
upperback -0.0414673 -2.85419 -1.91204
thorax -0.960722 -1.42132 1.09523
lowerneck -5.61972 -3.21892 -2.83859
upperneck -7.8559 -4.54265 -1.19362
head -1.46389 -2.30193 0.083967
rclavicle 1.33434e-014 1.27222e-014
rhumerus -30.2303 -10.9398 -82.8927
rradius 20.0542
rwrist 11.5337
rhand -19.9427 36.333
rfingers 7.12502
rthumb 6.39518 6.44953
lclavicle 1.33434e-014 1.27222e-014
lhumerus -42.7267 39.4885 57.8582
lradius 12.6269
lwrist -26.5077
lhand -10.3033 46.5432
lfingers 7.12502
lthumb 15.6915 75.927
rfemur -9.85498 5.91595 13.7216
rtibia 63.4482
rfoot 15.5211 14.5849
rtoes 14.5475
lfemur -25.4648 5.97176 -28.2636
ltibia 34.2246
lfoot -12.9383 -3.33633
ltoes 44.4492
322
root 10.5044 16.0755 2.00932 195.933 -72.513 -193.073
lowerback 2.06487 -2.18568 -5.40964
upperback -0.0210477 -3.10845 -1.91419
thorax -1.00037 -1.54745 1.14398
lowerneck -5.90636 -3.19045 -2.28997
upperneck -7.78185 -4.56151 -1.84258
head -1.42114 -2.3249 -0.210197
rclavicle -1.40392e-014 7.95139e-016
rhumerus -30.2766 -12.1302 -82.3383
rradius 19.2527
rwrist 12.9494
rhand -19.6924 36.5823
rfingers 7.12502
rthumb 6.63675 6.70635
lclavicle -1.40392e-014 7.95139e-016
lhumerus -40.8474 37.4299 60.3741
lradius 13.243
lwrist -23.9653
lhand -10.4435 46.1864
lfingers 7.12502
lthumb 15.5565 75.5807
rfemur -11.0304 5.54277 13.5135
rtibia 65.1129
rfoot 14.0377 13.9905
rtoes 10.4231
lfemur -24.7569 5.83334 -28.4283
ltibia 34.1709
lfoot -13.3362 -3.89104
ltoes 45.9416
323
root 10.3697 16.0793 2.01081 196.115 -72.6649 -193.352
lowerback 2.18755 -2.33456 -5.38428
upperback 0.0785227 -3.30987 -1.89636
thorax -0.955075 -1.6505 1.1553
lowerneck -6.08615 -3.22635 -2.07566
upperneck -8.03766 -4.66304 -2.19222
head -1.48734 -2.38379 -0.353363
rclavicle 3.43152e-014 1.03368e-014
rhumerus -30.288 -12.9848 -81.9237
rradius 18.7641
rwrist 13.7987
rhand -19.4871 36.6401
rfingers 7.12502
rthumb 6.83494 6.77047
lclavicle 3.43152e-014 1.03368e-014
lhumerus -38.9991 35.4446 62.8187
lradius 13.9225
lwrist -21.5735
lhand -11.2782 45.8599
lfingers 7.12502
lthumb 14.7525 75.3149
rfemur -12.3442 5.07714 13.4302
rtibia 66.5879
rfoot 12.3628 12.8783
rtoes 10.4118
lfemur -24.1236 5.75588 -28.5816
ltibia 34.206
lfoot -13.7287 -4.23624
ltoes 46.3186
324
root 10.2356 16.0745 2.01132 196.238 -72.7727 -193.578
lowerback 2.3311 -2.43909 -5.33579
upperback 0.20399 -3.45344 -1.91548
thorax -0.901888 -1.72587 1.11532
lowerneck -6.55514 -3.22878 -1.60828
upperneck -8.04952 -4.72612 -2.73827
head -1.44057 -2.43374 -0.606846
rclavicle -1.58531e-014 1.27222e-014
rhumerus -30.2047 -14.7122 -81.209
rradius 18.1087
rwrist 15.41
rhand -19.3958 36.6574
rfingers 7.12502
rthumb 6.9231 6.79057
lclavicle -1.58531e-014 1.27222e-014
lhumerus -37.1856 33.4918 65.0194
lradius 14.5056
lwrist -19.4872
lhand -12.046 45.693
lfingers 7.12502
lthumb 14.0127 75.2007
rfemur -13.6402 4.6402 13.4077
rtibia 67.8544
rfoot 9.99463 11.8623
rtoes 12.7775
lfemur -23.4535 5.75762 -28.7634
ltibia 34.2736
lfoot -14.4429 -4.47873
ltoes 45.6718
325
root 10.0991 16.0737 2.01356 195.716 -72.9852 -193.145
lowerback 2.47019 -2.55636 -5.01934
upperback 0.284415 -3.60622 -1.91249
thorax -0.90722 -1.80388 0.951617
lowerneck -6.06272 -3.21035 -2.49318
upperneck -8.41127 -4.61351 -1.57356
head -1.58454 -2.35544 -0.0905271
rclavicle -4.14466e-014 -1.94809e-014
rhumerus -30.2201 -17.624 -79.9857
rradius 17.0384
rwrist 17.9875
rhand -19.2254 37.5373
rfingers 7.12502
rthumb 7.08754 7.67598
lclavicle -4.14466e-014 -1.94809e-014
lhumerus -35.8481 31.9609 66.5302
lradius 15.0913
lwrist -18.108
lhand -12.5707 45.424
lfingers 7.12502
lthumb 13.507 74.966
rfemur -14.8597 4.1925 13.6518
rtibia 68.9079
rfoot 6.97965 11.3424
rtoes 13.3508
lfemur -22.7722 5.48409 -28.6168
ltibia 34.3112
lfoot -15.3866 -4.9788
ltoes 46.1076
